<svg width="1440" height="900" viewBox="0 0 1440 900" fill="none" xmlns="http://www.w3.org/2000/svg">
  <rect width="1440" height="900" fill="#0B1020"/>
  <rect x="72" y="64" width="1296" height="772" rx="20" fill="#11182A"/>
  <rect x="72" y="64" width="1296" height="88" fill="#161F36"/>
  <circle cx="124" cy="108" r="10" fill="#2A3552"/>
  <circle cx="156" cy="108" r="10" fill="#2A3552"/>
  <circle cx="188" cy="108" r="10" fill="#2A3552"/>
  <rect x="232" y="96" width="320" height="24" rx="12" fill="#24304C"/>
  <rect x="128" y="208" width="520" height="372" rx="28" fill="#18233C"/>
  <rect x="164" y="244" width="220" height="24" rx="12" fill="#DDE6F5" fill-opacity="0.92"/>
  <rect x="164" y="288" width="356" height="14" rx="7" fill="#A8B5CC" fill-opacity="0.72"/>
  <rect x="164" y="316" width="318" height="14" rx="7" fill="#A8B5CC" fill-opacity="0.52"/>
  <rect x="164" y="380" width="164" height="42" rx="21" fill="#10B981"/>
  <rect x="676" y="208" width="636" height="172" rx="28" fill="#131C31"/>
  <rect x="708" y="240" width="248" height="18" rx="9" fill="#DDE6F5" fill-opacity="0.88"/>
  <rect x="708" y="276" width="552" height="12" rx="6" fill="#9EABBF" fill-opacity="0.6"/>
  <rect x="708" y="300" width="506" height="12" rx="6" fill="#9EABBF" fill-opacity="0.44"/>
  <rect x="676" y="404" width="302" height="374" rx="28" fill="#151F35"/>
  <rect x="1010" y="404" width="302" height="374" rx="28" fill="#151F35"/>
  <rect x="712" y="440" width="164" height="16" rx="8" fill="#DDE6F5" fill-opacity="0.86"/>
  <rect x="1046" y="440" width="164" height="16" rx="8" fill="#DDE6F5" fill-opacity="0.86"/>
  <rect x="712" y="480" width="228" height="210" rx="20" fill="url(#paint0_linear_114_18)"/>
  <rect x="1046" y="480" width="228" height="210" rx="20" fill="url(#paint1_linear_114_18)"/>
  <rect x="712" y="718" width="206" height="12" rx="6" fill="#93A4BE" fill-opacity="0.56"/>
  <rect x="1046" y="718" width="206" height="12" rx="6" fill="#93A4BE" fill-opacity="0.56"/>
  <defs>
    <linearGradient id="paint0_linear_114_18" x1="712" y1="480" x2="940" y2="690" gradientUnits="userSpaceOnUse">
      <stop stop-color="#10B981"/>
      <stop offset="0.55" stop-color="#3B82F6"/>
      <stop offset="1" stop-color="#8B5CF6"/>
    </linearGradient>
    <linearGradient id="paint1_linear_114_18" x1="1046" y1="480" x2="1274" y2="690" gradientUnits="userSpaceOnUse">
      <stop stop-color="#3B82F6"/>
      <stop offset="1" stop-color="#8B5CF6"/>
    </linearGradient>
  </defs>
</svg>
